<svg width="12" height="20" viewBox="0 0 12 20" fill="none" xmlns="http://www.w3.org/2000/svg">
<path d="M10.8265 2.58631L10.8267 2.58649L10.8311 2.58057C11.1437 2.16755 11.1089 1.5813 10.7272 1.20716C10.3085 0.796636 9.63033 0.796636 9.21157 1.20716L0.729366 9.52259L0.729177 9.5224L0.724322 9.52791L0.630138 9.63487L0.629932 9.63468L0.625451 9.6406C0.312855 10.0536 0.347727 10.6399 0.729366 11.014L9.21157 19.3294L9.21138 19.3296L9.21697 19.3344L9.32607 19.4267L9.3259 19.4269L9.33185 19.4312C9.7514 19.7364 10.3464 19.7028 10.7272 19.3294L10.7274 19.3296L10.7323 19.3241L10.8265 19.2172L10.8267 19.2173L10.8311 19.2114C11.1437 18.7984 11.1089 18.2122 10.7272 17.838L10.6572 17.9094L10.7272 17.838L3.00537 10.2683L10.7272 2.69858L10.7274 2.69877L10.7323 2.69326L10.8265 2.58631Z" fill="#FFB620" stroke="#FFB620" stroke-width="0.2"/>
</svg>
