<svg width="112" height="41" viewBox="0 0 112 41" fill="none" xmlns="http://www.w3.org/2000/svg">
<g filter="url(#filter0_bi_8_40)">
<path d="M91.5 41C102.822 41 112 31.8218 112 20.5C112 9.17816 102.822 0 91.5 0H20.5001C9.17824 0 6.33534e-05 9.17825 0.000141504 20.5001C0.000219653 31.8219 9.17836 41 20.5001 41H91.5Z" fill="white" fill-opacity="0.3"/>
<path d="M111.75 20.5C111.75 31.6838 102.684 40.75 91.5 40.75H20.5001C9.31643 40.75 0.250219 31.6839 0.250142 20.5001C0.250064 9.31632 9.31631 0.25 20.5001 0.25H91.5C102.684 0.25 111.75 9.31623 111.75 20.5Z" stroke="url(#paint0_linear_8_40)" stroke-width="0.5"/>
</g>
<path d="M20.7287 23H19.4568L18.81 21.1783H14.9618L14.3151 23H13.097L15.8565 15.4545H17.9692L20.7287 23ZM16.8913 15.7995L15.3499 20.1112H18.4219L16.8913 15.7995ZM25.6672 19.0871V15.0234H26.799V23H25.6672V21.4047C25.4947 21.9293 25.2145 22.3461 24.8264 22.6551C24.4455 22.9569 23.9964 23.1078 23.479 23.1078C22.7676 23.1078 22.1747 22.8347 21.7004 22.2886C21.2261 21.7424 20.989 21.0633 20.989 20.2513C20.989 19.4393 21.2261 18.7602 21.7004 18.214C22.1747 17.6607 22.7676 17.384 23.479 17.384C23.9964 17.384 24.4455 17.5385 24.8264 17.8475C25.2145 18.1494 25.4947 18.5626 25.6672 19.0871ZM23.8563 22.0622C24.3809 22.0622 24.812 21.8897 25.1498 21.5448C25.4947 21.1999 25.6672 20.7687 25.6672 20.2513C25.6672 19.7267 25.4947 19.2919 25.1498 18.947C24.812 18.6021 24.3809 18.4296 23.8563 18.4296C23.382 18.4296 22.9796 18.6057 22.649 18.9578C22.3184 19.3027 22.1532 19.7339 22.1532 20.2513C22.1532 20.7615 22.3184 21.1927 22.649 21.5448C22.9796 21.8897 23.382 22.0622 23.8563 22.0622ZM28.6931 22.2886C28.1326 21.7424 27.8523 21.0633 27.8523 20.2513C27.8523 19.4393 28.1326 18.7602 28.6931 18.214C29.2536 17.6607 29.9471 17.384 30.7735 17.384C31.5999 17.384 32.2934 17.6607 32.8539 18.214C33.4144 18.7602 33.6947 19.4393 33.6947 20.2513C33.6947 21.0633 33.4144 21.7424 32.8539 22.2886C32.2934 22.8347 31.5999 23.1078 30.7735 23.1078C29.9471 23.1078 29.2536 22.8347 28.6931 22.2886ZM29.5231 18.9578C29.1854 19.3027 29.0165 19.7339 29.0165 20.2513C29.0165 20.7687 29.1854 21.1999 29.5231 21.5448C29.8609 21.8897 30.2777 22.0622 30.7735 22.0622C31.2765 22.0622 31.6933 21.8897 32.0239 21.5448C32.3616 21.1999 32.5305 20.7687 32.5305 20.2513C32.5305 19.7267 32.3616 19.2919 32.0239 18.947C31.6933 18.6021 31.2765 18.4296 30.7735 18.4296C30.2777 18.4296 29.8609 18.6057 29.5231 18.9578ZM35.254 18.4943H34.079V17.4918H35.254V15.7025L36.3858 15.3468V17.4918H37.938V18.4943H36.3858V21.0382C36.3858 21.3759 36.4612 21.6203 36.6121 21.7712C36.763 21.9221 37.0038 21.9975 37.3343 21.9975H37.938V23H37.3343C36.6229 23 36.0983 22.8347 35.7606 22.5042C35.4228 22.1736 35.254 21.667 35.254 20.9843V18.4943ZM41.216 17.384C41.8772 17.384 42.4161 17.5565 42.8329 17.9014C43.2497 18.2464 43.4581 18.7422 43.4581 19.389V23H42.3263V21.534C41.9886 22.5832 41.3095 23.1078 40.289 23.1078C39.8147 23.1078 39.4195 22.9677 39.1033 22.6874C38.7871 22.4 38.629 22.0263 38.629 21.5664C38.629 21.0274 38.8195 20.625 39.2003 20.3591C39.5812 20.086 40.0663 19.9171 40.6555 19.8525L41.7227 19.7447C42.1251 19.7087 42.3263 19.5291 42.3263 19.2057C42.3263 18.9398 42.2221 18.7278 42.0137 18.5697C41.8125 18.4116 41.5466 18.3326 41.216 18.3326C40.8783 18.3326 40.5908 18.4188 40.3537 18.5913C40.1237 18.7638 39.9764 19.0153 39.9118 19.3458L38.7907 19.0764C38.8913 18.559 39.1608 18.1494 39.5992 17.8475C40.0375 17.5385 40.5765 17.384 41.216 17.384ZM40.6555 22.1916C41.1226 22.1916 41.5179 22.0371 41.8412 21.7281C42.1646 21.4119 42.3263 21.0454 42.3263 20.6286V20.3268C42.2401 20.4705 42.0317 20.5603 41.7011 20.5962L40.6555 20.7256C40.3824 20.7615 40.1633 20.8442 39.998 20.9735C39.8399 21.0957 39.7608 21.2645 39.7608 21.4801C39.7608 21.6957 39.8399 21.8682 39.998 21.9975C40.1633 22.1269 40.3824 22.1916 40.6555 22.1916ZM45.8107 17.4918V18.947C45.9903 18.2931 46.2706 17.8511 46.6515 17.6212C47.0395 17.3912 47.4779 17.3337 47.9665 17.4487V18.5266C47.3701 18.3613 46.8599 18.4152 46.4359 18.6883C46.0191 18.9542 45.8107 19.353 45.8107 19.8848V23H44.6789V17.4918H45.8107ZM52.7912 18.4943H51.6163V17.4918H52.7912V15.7025L53.9231 15.3468V17.4918H55.4753V18.4943H53.9231V21.0382C53.9231 21.3759 53.9985 21.6203 54.1494 21.7712C54.3003 21.9221 54.5411 21.9975 54.8716 21.9975H55.4753V23H54.8716C54.1602 23 53.6356 22.8347 53.2979 22.5042C52.9601 22.1736 52.7912 21.667 52.7912 20.9843V18.4943ZM58.7533 17.384C59.4145 17.384 59.9534 17.5565 60.3702 17.9014C60.787 18.2464 60.9954 18.7422 60.9954 19.389V23H59.8636V21.534C59.5258 22.5832 58.8467 23.1078 57.8263 23.1078C57.352 23.1078 56.9568 22.9677 56.6406 22.6874C56.3244 22.4 56.1663 22.0263 56.1663 21.5664C56.1663 21.0274 56.3567 20.625 56.7376 20.3591C57.1185 20.086 57.6035 19.9171 58.1928 19.8525L59.26 19.7447C59.6624 19.7087 59.8636 19.5291 59.8636 19.2057C59.8636 18.9398 59.7594 18.7278 59.551 18.5697C59.3498 18.4116 59.0839 18.3326 58.7533 18.3326C58.4156 18.3326 58.1281 18.4188 57.891 18.5913C57.661 18.7638 57.5137 19.0153 57.449 19.3458L56.328 19.0764C56.4286 18.559 56.6981 18.1494 57.1364 17.8475C57.5748 17.5385 58.1138 17.384 58.7533 17.384ZM58.1928 22.1916C58.6599 22.1916 59.0551 22.0371 59.3785 21.7281C59.7019 21.4119 59.8636 21.0454 59.8636 20.6286V20.3268C59.7774 20.4705 59.569 20.5603 59.2384 20.5962L58.1928 20.7256C57.9197 20.7615 57.7006 20.8442 57.5353 20.9735C57.3772 21.0957 57.2981 21.2645 57.2981 21.4801C57.2981 21.6957 57.3772 21.8682 57.5353 21.9975C57.7006 22.1269 57.9197 22.1916 58.1928 22.1916ZM63.348 17.4918V18.947C63.5276 18.2931 63.8079 17.8511 64.1887 17.6212C64.5768 17.3912 65.0152 17.3337 65.5038 17.4487V18.5266C64.9074 18.3613 64.3971 18.4152 63.9732 18.6883C63.5564 18.9542 63.348 19.353 63.348 19.8848V23H62.2162V17.4918H63.348ZM67.0969 18.4943H65.9219V17.4918H67.0969V15.7025L68.2287 15.3468V17.4918H69.7809V18.4943H68.2287V21.0382C68.2287 21.3759 68.3041 21.6203 68.455 21.7712C68.606 21.9221 68.8467 21.9975 69.1773 21.9975H69.7809V23H69.1773C68.4658 23 67.9412 22.8347 67.6035 22.5042C67.2657 22.1736 67.0969 21.667 67.0969 20.9843V18.4943ZM73.059 17.384C73.7201 17.384 74.259 17.5565 74.6758 17.9014C75.0926 18.2464 75.301 18.7422 75.301 19.389V23H74.1692V21.534C73.8315 22.5832 73.1524 23.1078 72.1319 23.1078C71.6577 23.1078 71.2624 22.9677 70.9462 22.6874C70.63 22.4 70.4719 22.0263 70.4719 21.5664C70.4719 21.0274 70.6624 20.625 71.0432 20.3591C71.4241 20.086 71.9092 19.9171 72.4984 19.8525L73.5656 19.7447C73.968 19.7087 74.1692 19.5291 74.1692 19.2057C74.1692 18.9398 74.065 18.7278 73.8566 18.5697C73.6554 18.4116 73.3895 18.3326 73.059 18.3326C72.7212 18.3326 72.4338 18.4188 72.1966 18.5913C71.9667 18.7638 71.8193 19.0153 71.7547 19.3458L70.6336 19.0764C70.7342 18.559 71.0037 18.1494 71.4421 17.8475C71.8804 17.5385 72.4194 17.384 73.059 17.384ZM72.4984 22.1916C72.9655 22.1916 73.3608 22.0371 73.6841 21.7281C74.0075 21.4119 74.1692 21.0454 74.1692 20.6286V20.3268C74.083 20.4705 73.8746 20.5603 73.544 20.5962L72.4984 20.7256C72.2254 20.7615 72.0062 20.8442 71.8409 20.9735C71.6828 21.0957 71.6038 21.2645 71.6038 21.4801C71.6038 21.6957 71.6828 21.8682 71.8409 21.9975C72.0062 22.1269 72.2254 22.1916 72.4984 22.1916ZM77.6536 17.4918V18.947C77.8332 18.2931 78.1135 17.8511 78.4944 17.6212C78.8824 17.3912 79.3208 17.3337 79.8094 17.4487V18.5266C79.213 18.3613 78.7028 18.4152 78.2788 18.6883C77.862 18.9542 77.6536 19.353 77.6536 19.8848V23H76.5218V17.4918H77.6536ZM80.5522 20.7148V17.4918H81.684V20.7148C81.684 21.1172 81.8134 21.4442 82.0721 21.6957C82.3308 21.94 82.6613 22.0622 83.0638 22.0622C83.459 22.0622 83.786 21.94 84.0447 21.6957C84.3034 21.4442 84.4327 21.1172 84.4327 20.7148V17.4918H85.5645V20.7148C85.5645 21.419 85.3274 21.9939 84.8531 22.4395C84.386 22.885 83.7896 23.1078 83.0638 23.1078C82.3308 23.1078 81.7271 22.885 81.2528 22.4395C80.7857 21.9939 80.5522 21.419 80.5522 20.7148ZM91.2057 19.0548V17.4918H92.3375V22.4071C92.3375 23.2192 92.0572 23.8983 91.4967 24.4444C90.9362 24.9906 90.2427 25.2636 89.4163 25.2636C88.8343 25.2636 88.3133 25.1235 87.8534 24.8432C87.4006 24.563 87.0593 24.1857 86.8293 23.7114L87.8534 23.2048C88.0043 23.521 88.2127 23.7689 88.4785 23.9486C88.7516 24.1354 89.0642 24.2288 89.4163 24.2288C89.9194 24.2288 90.3434 24.0528 90.6883 23.7006C91.0332 23.3557 91.2057 22.9245 91.2057 22.4071V21.3292C91.026 21.8323 90.7422 22.2347 90.3541 22.5365C89.9733 22.8383 89.5277 22.9892 89.0175 22.9892C88.3061 22.9892 87.7132 22.7233 87.2389 22.1916C86.7646 21.6526 86.5275 20.9843 86.5275 20.1866C86.5275 19.389 86.7646 18.7242 87.2389 18.1925C87.7132 17.6535 88.3061 17.384 89.0175 17.384C89.5277 17.384 89.9769 17.5349 90.3649 17.8368C90.753 18.1386 91.0332 18.5446 91.2057 19.0548ZM89.4271 21.9544C89.9373 21.9544 90.3613 21.7855 90.6991 21.4478C91.0368 21.11 91.2057 20.6897 91.2057 20.1866C91.2057 19.6836 91.0368 19.2668 90.6991 18.9362C90.3613 18.5985 89.9373 18.4296 89.4271 18.4296C88.9385 18.4296 88.5253 18.5985 88.1875 18.9362C87.8569 19.274 87.6917 19.6908 87.6917 20.1866C87.6917 20.6897 87.8569 21.11 88.1875 21.4478C88.5253 21.7855 88.9385 21.9544 89.4271 21.9544ZM95.8701 17.384C96.5312 17.384 97.0701 17.5565 97.4869 17.9014C97.9037 18.2464 98.1121 18.7422 98.1121 19.389V23H96.9803V21.534C96.6426 22.5832 95.9635 23.1078 94.943 23.1078C94.4688 23.1078 94.0735 22.9677 93.7573 22.6874C93.4411 22.4 93.283 22.0263 93.283 21.5664C93.283 21.0274 93.4735 20.625 93.8543 20.3591C94.2352 20.086 94.7203 19.9171 95.3095 19.8525L96.3767 19.7447C96.7791 19.7087 96.9803 19.5291 96.9803 19.2057C96.9803 18.9398 96.8761 18.7278 96.6677 18.5697C96.4665 18.4116 96.2006 18.3326 95.8701 18.3326C95.5323 18.3326 95.2449 18.4188 95.0077 18.5913C94.7778 18.7638 94.6305 19.0153 94.5658 19.3458L93.4447 19.0764C93.5453 18.559 93.8148 18.1494 94.2532 17.8475C94.6915 17.5385 95.2305 17.384 95.8701 17.384ZM95.3095 22.1916C95.7766 22.1916 96.1719 22.0371 96.4953 21.7281C96.8186 21.4119 96.9803 21.0454 96.9803 20.6286V20.3268C96.8941 20.4705 96.6857 20.5603 96.3551 20.5962L95.3095 20.7256C95.0365 20.7615 94.8173 20.8442 94.652 20.9735C94.4939 21.0957 94.4149 21.2645 94.4149 21.4801C94.4149 21.6957 94.4939 21.8682 94.652 21.9975C94.8173 22.1269 95.0365 22.1916 95.3095 22.1916Z" fill="white" fill-opacity="0.7"/>
<defs>
<filter id="filter0_bi_8_40" x="-14.7811" y="-14.7813" width="141.562" height="70.5626" filterUnits="userSpaceOnUse" color-interpolation-filters="sRGB">
<feFlood flood-opacity="0" result="BackgroundImageFix"/>
<feGaussianBlur in="BackgroundImage" stdDeviation="7.39065"/>
<feComposite in2="SourceAlpha" operator="in" result="effect1_backgroundBlur_8_40"/>
<feBlend mode="normal" in="SourceGraphic" in2="effect1_backgroundBlur_8_40" result="shape"/>
<feColorMatrix in="SourceAlpha" type="matrix" values="0 0 0 0 0 0 0 0 0 0 0 0 0 0 0 0 0 0 127 0" result="hardAlpha"/>
<feOffset dy="-4.43439"/>
<feGaussianBlur stdDeviation="8.86879"/>
<feComposite in2="hardAlpha" operator="arithmetic" k2="-1" k3="1"/>
<feColorMatrix type="matrix" values="0 0 0 0 1 0 0 0 0 1 0 0 0 0 1 0 0 0 0.15 0"/>
<feBlend mode="normal" in2="shape" result="effect2_innerShadow_8_40"/>
</filter>
<linearGradient id="paint0_linear_8_40" x1="66.5609" y1="43.536" x2="61.5805" y2="9.49501" gradientUnits="userSpaceOnUse">
<stop stop-color="white"/>
<stop offset="1" stop-color="white" stop-opacity="0"/>
</linearGradient>
</defs>
</svg>
