<svg width="60" height="57" viewBox="0 0 60 57" fill="none" xmlns="http://www.w3.org/2000/svg">
<rect x="0.5" y="0.5" width="59" height="56" rx="28" fill="white"/>
<path d="M40.5 23.25H34.5" stroke="#262A2F" stroke-width="1.5" stroke-miterlimit="10" stroke-linecap="round" stroke-linejoin="round"/>
<path d="M24.5 23.25H20.5" stroke="#262A2F" stroke-width="1.5" stroke-miterlimit="10" stroke-linecap="round" stroke-linejoin="round"/>
<path d="M28.5 26.75C30.433 26.75 32 25.183 32 23.25C32 21.317 30.433 19.75 28.5 19.75C26.567 19.75 25 21.317 25 23.25C25 25.183 26.567 26.75 28.5 26.75Z" stroke="#262A2F" stroke-width="1.5" stroke-miterlimit="10" stroke-linecap="round" stroke-linejoin="round"/>
<path d="M40.5 34.25H36.5" stroke="#262A2F" stroke-width="1.5" stroke-miterlimit="10" stroke-linecap="round" stroke-linejoin="round"/>
<path d="M26.5 34.25H20.5" stroke="#262A2F" stroke-width="1.5" stroke-miterlimit="10" stroke-linecap="round" stroke-linejoin="round"/>
<path d="M32.5 37.75C34.433 37.75 36 36.183 36 34.25C36 32.317 34.433 30.75 32.5 30.75C30.567 30.75 29 32.317 29 34.25C29 36.183 30.567 37.75 32.5 37.75Z" stroke="#262A2F" stroke-width="1.5" stroke-miterlimit="10" stroke-linecap="round" stroke-linejoin="round"/>
</svg>
