<svg width="41" height="31" viewBox="0 0 41 31" fill="none" xmlns="http://www.w3.org/2000/svg">
<path fill-rule="evenodd" clip-rule="evenodd" d="M31.268 5.508H29.7102L28.0609 2.62288C27.4868 1.62049 26.4205 1.00145 25.2653 1H15.3747C14.2195 1.00145 13.1532 1.62049 12.5791 2.62288L10.9298 5.508H10.66V3.576C10.66 3.22035 10.3716 2.932 10.016 2.932H4.864C4.50835 2.932 4.22 3.22035 4.22 3.576V5.508C2.44256 5.51009 1.00209 6.95056 1 8.728V26.76C1.00209 28.5374 2.44256 29.9779 4.22 29.98H36.42C38.1974 29.9779 39.6379 28.5374 39.64 26.76V8.728C39.6379 6.95056 38.1974 5.51009 36.42 5.508H35.132H32.556H31.268ZM9.372 4.22H5.508V5.508H9.372V4.22ZM36.42 28.692C37.487 28.692 38.352 27.827 38.352 26.76V8.728C38.352 7.66097 37.487 6.796 36.42 6.796H29.336C29.1054 6.79648 28.8923 6.67364 28.777 6.474L26.9397 3.26173C26.5955 2.66152 25.9573 2.29033 25.2653 2.288H15.3747C14.6811 2.28969 14.0412 2.66208 13.6971 3.2643L11.863 6.474C11.7477 6.67364 11.5346 6.79648 11.304 6.796H4.22C3.15297 6.796 2.288 7.66097 2.288 8.728V26.76C2.288 27.827 3.15297 28.692 4.22 28.692H36.42Z" fill="white" stroke="white"/>
<path d="M28.9763 19.0726C28.9757 19.0723 28.9752 19.0722 28.9746 19.0719C28.6424 18.945 28.2703 19.1114 28.1432 19.4435C26.4874 23.7606 21.6454 25.918 17.3284 24.2622C14.4244 23.1484 12.3773 20.5165 12.0123 17.4278L13.5843 18.9998C13.8315 19.2556 14.2391 19.2627 14.4949 19.0156C14.7508 18.7685 14.7579 18.3608 14.5107 18.105C14.5056 18.0996 14.5003 18.0943 14.4949 18.0892L11.7625 15.3567C11.511 15.1053 11.1033 15.1053 10.8518 15.3567L8.11612 18.0892C7.86899 18.345 7.87607 18.7527 8.1319 18.9998C8.38145 19.2409 8.77719 19.2409 9.02674 18.9998L10.7011 17.3254C11.1828 22.6387 15.8804 26.5555 21.1938 26.0739C24.8647 25.7412 28.0263 23.3484 29.3437 19.9058C29.4723 19.5743 29.3078 19.2012 28.9763 19.0726Z" fill="white" stroke="white"/>
<path d="M31.629 13.8963C31.6236 13.9015 31.6184 13.9068 31.6132 13.9121L29.9388 15.5865C29.4582 10.2731 24.7613 6.35538 19.4479 6.83597C15.7615 7.1694 12.5897 9.58005 11.2815 13.0427C11.1558 13.3754 11.3236 13.7471 11.6563 13.8728C11.989 13.9985 12.3607 13.8307 12.4864 13.498C14.1239 9.17393 18.9566 6.99592 23.2807 8.63329C26.2036 9.74017 28.2667 12.3831 28.6309 15.4873L27.0589 13.9121C26.8118 13.6563 26.4041 13.6492 26.1482 13.8963C25.8924 14.1434 25.8853 14.5511 26.1325 14.8069C26.1376 14.8123 26.1429 14.8175 26.1482 14.8227L28.8807 17.5552C29.1322 17.8066 29.5399 17.8066 29.7913 17.5552L32.5238 14.8227C32.7797 14.5756 32.7867 14.1679 32.5396 13.9121C32.2926 13.6563 31.8848 13.6492 31.629 13.8963Z" fill="white" stroke="white"/>
</svg>
