<svg width="28" height="16" viewBox="0 0 28 16" fill="none" xmlns="http://www.w3.org/2000/svg">
<path d="M0.234879 0.230167C-0.0497074 0.509158 -0.0755787 0.945733 0.157265 1.25338L0.234879 1.34151L6.65829 7.63837L0.234879 13.9352C-0.0497074 14.2142 -0.0755787 14.6508 0.157265 14.9584L0.234879 15.0466C0.519465 15.3256 0.964796 15.3509 1.27861 15.1227L1.36851 15.0466L8.35848 8.19404C8.64306 7.91505 8.66894 7.47848 8.43609 7.17083L8.35848 7.0827L1.36851 0.230167C1.05547 -0.0767225 0.547924 -0.0767225 0.234879 0.230167Z" fill="black" fill-opacity="0.3"/>
<path d="M9.82716 0.230167C9.54258 0.509158 9.51671 0.945733 9.74955 1.25338L9.82716 1.34151L16.2506 7.63837L9.82716 13.9352C9.54258 14.2142 9.51671 14.6508 9.74955 14.9584L9.82716 15.0466C10.1118 15.3256 10.5571 15.3509 10.8709 15.1227L10.9608 15.0466L17.9508 8.19404C18.2353 7.91505 18.2612 7.47848 18.0284 7.17083L17.9508 7.0827L10.9608 0.230167C10.6478 -0.0767225 10.1402 -0.0767225 9.82716 0.230167Z" fill="black" fill-opacity="0.6"/>
<path d="M19.4199 0.230167C19.1354 0.509158 19.1095 0.945733 19.3423 1.25338L19.4199 1.34151L25.8433 7.63837L19.4199 13.9352C19.1354 14.2142 19.1095 14.6508 19.3423 14.9584L19.4199 15.0466C19.7045 15.3256 20.1499 15.3509 20.4637 15.1227L20.5536 15.0466L27.5435 8.19404C27.8281 7.91505 27.854 7.47848 27.6212 7.17083L27.5435 7.0827L20.5536 0.230167C20.2405 -0.0767225 19.733 -0.0767225 19.4199 0.230167Z" fill="#262A2F"/>
</svg>
